<svg width="40" height="40" fill="none" xmlns="http://www.w3.org/2000/svg"><path d="M39.4 24.838c-2.671 10.715-13.524 17.235-24.24 14.564C4.45 36.73-2.07 25.878.602 15.164 3.271 4.448 14.123-2.073 24.836.598 35.55 3.27 42.07 14.123 39.399 24.838h.001z" fill="#F7931A"/><path fill-rule="evenodd" clip-rule="evenodd" d="M26.023 17.677c.27-1.806-1.104-2.776-2.984-3.424l.61-2.445-1.49-.371-.593 2.38c-.39-.097-.793-.189-1.192-.28l.598-2.397-1.488-.37-.61 2.444a50.444 50.444 0 01-.95-.223v-.008l-2.052-.513-.396 1.59s1.104.253 1.081.27c.603.15.712.549.694.865l-.695 2.786c.042.01.096.026.155.05l-.157-.04-.974 3.903c-.074.184-.26.458-.682.354.015.022-1.082-.27-1.082-.27l-.74 1.704 1.938.483c.22.055.435.111.65.167l.411.107-.616 2.474 1.487.371.61-2.447c.407.11.8.212 1.187.308l-.608 2.436 1.488.37.616-2.468c2.539.48 4.448.286 5.25-2.01.648-1.848-.031-2.914-1.367-3.61.973-.225 1.706-.865 1.901-2.186zm-3.401 4.769c-.423 1.697-3.08.995-4.293.674-.11-.029-.206-.055-.29-.075l.818-3.277c.102.025.226.053.366.084 1.256.282 3.83.86 3.4 2.594h-.001zm-3.147-4.114c1.014.27 3.222.86 3.607-.682.393-1.577-1.754-2.052-2.803-2.284l-.307-.07-.741 2.972c.07.017.152.039.244.064z" fill="#fff"/></svg>