<svg width="40" height="40" fill="none" xmlns="http://www.w3.org/2000/svg"><path d="M39.892 20c0 10.988-8.908 19.895-19.895 19.895S.102 30.988.102 20C.102 9.013 9.01.106 19.997.106S39.892 9.013 39.892 20z" fill="#6800ED"/><path d="M19.934 10.77l-.123.417v12.12l.123.122 5.625-3.325-5.625-9.335z" fill="#fff"/><path d="M19.934 10.77l-5.626 9.334 5.626 3.325V10.77zm-.001 14.49l-.069.084v4.317l.07.203 5.629-7.928-5.63 3.324z" fill="#fff"/><path d="M19.934 29.864V25.26l-5.626-3.324 5.626 7.928zm-.001-6.434l5.626-3.326-5.626-2.557v5.882zm-5.625-3.326l5.625 3.325v-5.882l-5.625 2.557z" fill="#fff"/></svg>