<svg width="70" height="71" fill="none" xmlns="http://www.w3.org/2000/svg"><g filter="url(#filter0_d_16_145)"><circle cx="34.8" cy="22.605" r="16.8" fill="#F53838"/></g><path d="M34.8 5.805c-9.278 0-16.8 7.522-16.8 16.8 0 9.279 7.521 16.8 16.8 16.8s16.8-7.521 16.8-16.8c0-9.278-7.522-16.8-16.8-16.8zm3.98 11.61h-2.526c-.299 0-.631.393-.631.917v1.823h3.158l-.477 2.6h-2.681v7.807h-2.98v-7.806h-2.704v-2.6h2.703v-1.53c0-2.195 1.523-3.978 3.612-3.978h2.526v2.767z" fill="#fff"/><defs><filter id="filter0_d_16_145" x="0" y=".805" width="69.6" height="69.6" filterUnits="userSpaceOnUse" color-interpolation-filters="sRGB"><feFlood flood-opacity="0" result="BackgroundImageFix"/><feColorMatrix in="SourceAlpha" values="0 0 0 0 0 0 0 0 0 0 0 0 0 0 0 0 0 0 127 0" result="hardAlpha"/><feOffset dy="13"/><feGaussianBlur stdDeviation="9"/><feColorMatrix values="0 0 0 0 0.0658854 0 0 0 0 0.0730469 0 0 0 0 0.1375 0 0 0 0.08 0"/><feBlend in2="BackgroundImageFix" result="effect1_dropShadow_16_145"/><feBlend in="SourceGraphic" in2="effect1_dropShadow_16_145" result="shape"/></filter></defs></svg>