<svg width="68" height="35" fill="none" xmlns="http://www.w3.org/2000/svg"><path d="M5.313 0v27H.232V0h5.08zm3.375 17.684v-.37c0-1.394.199-2.677.597-3.85.399-1.183.979-2.208 1.74-3.075a7.797 7.797 0 012.813-2.022c1.113-.492 2.39-.738 3.832-.738 1.441 0 2.724.246 3.85.738 1.125.48 2.068 1.154 2.83 2.022.773.867 1.359 1.892 1.757 3.076.399 1.172.598 2.455.598 3.85v.369c0 1.382-.2 2.666-.598 3.85a8.971 8.971 0 01-1.757 3.075 7.798 7.798 0 01-2.813 2.022c-1.113.48-2.39.72-3.832.72-1.441 0-2.724-.24-3.85-.72a7.966 7.966 0 01-2.83-2.022 9.127 9.127 0 01-1.74-3.076c-.398-1.183-.598-2.467-.598-3.85zm5.062-.37v.37c0 .796.07 1.54.21 2.232.142.691.364 1.3.669 1.828.316.516.726.92 1.23 1.213.504.293 1.12.44 1.846.44.703 0 1.307-.147 1.81-.44a3.342 3.342 0 001.213-1.213 6.031 6.031 0 00.668-1.828c.153-.691.229-1.436.229-2.232v-.37c0-.773-.076-1.5-.229-2.18a5.75 5.75 0 00-.685-1.827 3.404 3.404 0 00-1.213-1.266c-.504-.305-1.113-.457-1.828-.457-.715 0-1.324.152-1.828.457a3.597 3.597 0 00-1.213 1.266 6.035 6.035 0 00-.668 1.828c-.14.68-.211 1.406-.211 2.18zM41.857 7.98h4.588v18.387c0 1.735-.386 3.205-1.16 4.412-.762 1.219-1.828 2.139-3.2 2.76-1.37.633-2.964.95-4.78.95a11 11 0 01-2.532-.317 10.128 10.128 0 01-2.53-.984 6.687 6.687 0 01-2.005-1.688l2.233-2.988a6.307 6.307 0 002.039 1.582c.773.386 1.629.58 2.566.58.914 0 1.688-.17 2.32-.51a3.375 3.375 0 001.46-1.459c.34-.633.51-1.4.51-2.303V12.375l.491-4.395zm-12.796 9.74v-.37c0-1.453.175-2.77.527-3.954.363-1.196.873-2.221 1.53-3.077a6.953 6.953 0 012.425-1.986c.95-.469 2.022-.703 3.217-.703 1.265 0 2.326.234 3.181.703a5.75 5.75 0 012.11 2.004c.55.855.978 1.87 1.283 3.041.316 1.16.563 2.432.738 3.814V18a22.516 22.516 0 01-.79 3.691c-.352 1.137-.815 2.133-1.39 2.989a6.143 6.143 0 01-2.144 1.968c-.844.47-1.851.704-3.023.704-1.172 0-2.233-.24-3.182-.721a7.106 7.106 0 01-2.408-2.022c-.668-.867-1.184-1.886-1.547-3.058-.352-1.172-.527-2.45-.527-3.832zm5.062-.37v.37c0 .785.076 1.517.229 2.197a6.04 6.04 0 00.703 1.81c.328.516.732.92 1.213 1.213.492.282 1.072.422 1.74.422.926 0 1.681-.193 2.267-.58a3.645 3.645 0 001.319-1.634c.293-.692.463-1.489.51-2.391v-2.303a7.772 7.772 0 00-.3-1.986c-.175-.598-.421-1.108-.738-1.53a3.19 3.19 0 00-1.23-.984c-.504-.234-1.102-.351-1.793-.351-.668 0-1.248.152-1.74.457-.48.293-.885.697-1.213 1.213-.317.515-.557 1.124-.72 1.828a9.738 9.738 0 00-.247 2.25zm15.451.335v-.37c0-1.394.2-2.677.598-3.85.398-1.183.978-2.208 1.74-3.075a7.797 7.797 0 012.813-2.022c1.113-.492 2.39-.738 3.832-.738 1.441 0 2.724.246 3.85.738 1.124.48 2.068 1.154 2.83 2.022.773.867 1.359 1.892 1.757 3.076.399 1.172.598 2.455.598 3.85v.369c0 1.382-.2 2.666-.598 3.85a8.97 8.97 0 01-1.758 3.075 7.798 7.798 0 01-2.812 2.022c-1.114.48-2.39.72-3.832.72-1.442 0-2.725-.24-3.85-.72a7.966 7.966 0 01-2.83-2.022 9.126 9.126 0 01-1.74-3.076c-.399-1.183-.598-2.467-.598-3.85zm5.063-.37v.37c0 .796.07 1.54.21 2.232.141.691.364 1.3.669 1.828.316.516.726.92 1.23 1.213.504.293 1.12.44 1.846.44.703 0 1.306-.147 1.81-.44a3.342 3.342 0 001.213-1.213 6.031 6.031 0 00.668-1.828c.152-.691.229-1.436.229-2.232v-.37c0-.773-.077-1.5-.229-2.18a5.75 5.75 0 00-.685-1.827 3.405 3.405 0 00-1.213-1.266c-.504-.305-1.113-.457-1.828-.457-.715 0-1.325.152-1.829.457a3.597 3.597 0 00-1.212 1.266 6.033 6.033 0 00-.668 1.828c-.141.68-.211 1.406-.211 2.18z" fill="#fff"/></svg>